<?xml version="1.0" encoding="UTF-8"?>
<svg xmlns="http://www.w3.org/2000/svg" xmlns:xlink="http://www.w3.org/1999/xlink" width="999pt" height="570pt" viewBox="0 0 999 570" version="1.1">
<defs>
<filter id="alpha" filterUnits="objectBoundingBox" x="0%" y="0%" width="100%" height="100%">
  <feColorMatrix type="matrix" in="SourceGraphic" values="0 0 0 0 1 0 0 0 0 1 0 0 0 0 1 0 0 0 1 0"/>
</filter>
<mask id="mask0">
  <g filter="url(#alpha)">
<rect x="0" y="0" width="999" height="570" style="fill:rgb(0%,0%,0%);fill-opacity:0.101961;stroke:none;"/>
  </g>
</mask>
<clipPath id="clip1">
  <rect width="999" height="570"/>
</clipPath>
<g id="surface6" clip-path="url(#clip1)">
<path style=" stroke:none;fill-rule:nonzero;fill:rgb(0%,0%,0%);fill-opacity:1;" d="M 250.628906 156.15625 L 273.492188 106.015625 L 305.152344 179.023438 L 277.890625 126.246094 Z M 250.628906 156.15625 "/>
</g>
<mask id="mask1">
  <g filter="url(#alpha)">
<rect x="0" y="0" width="999" height="570" style="fill:rgb(0%,0%,0%);fill-opacity:0.101961;stroke:none;"/>
  </g>
</mask>
<clipPath id="clip2">
  <rect width="999" height="570"/>
</clipPath>
<g id="surface9" clip-path="url(#clip2)">
<path style=" stroke:none;fill-rule:nonzero;fill:rgb(0%,0%,0%);fill-opacity:1;" d="M 483.132812 495.523438 C 473.054688 493.863281 463.003906 492.4375 452.980469 491.25 L 344.761719 251.339844 Z M 483.132812 495.523438 "/>
</g>
<mask id="mask2">
  <g filter="url(#alpha)">
<rect x="0" y="0" width="999" height="570" style="fill:rgb(0%,0%,0%);fill-opacity:0.101961;stroke:none;"/>
  </g>
</mask>
<clipPath id="clip3">
  <rect width="999" height="570"/>
</clipPath>
<g id="surface12" clip-path="url(#clip3)">
<path style=" stroke:none;fill-rule:nonzero;fill:rgb(0%,0%,0%);fill-opacity:1;" d="M 393.453125 184.503906 L 418.59375 164.949219 L 532.917969 296.894531 L 416.835938 184.300781 Z M 393.453125 184.503906 "/>
</g>
<mask id="mask3">
  <g filter="url(#alpha)">
<rect x="0" y="0" width="999" height="570" style="fill:rgb(0%,0%,0%);fill-opacity:0.101961;stroke:none;"/>
  </g>
</mask>
<clipPath id="clip4">
  <rect width="999" height="570"/>
</clipPath>
<g id="surface15" clip-path="url(#clip4)">
<path style=" stroke:none;fill-rule:nonzero;fill:rgb(0%,0%,0%);fill-opacity:1;" d="M 533.089844 281.296875 L 761.5625 500.089844 L 730.3125 507.460938 Z M 533.089844 281.296875 "/>
</g>
<mask id="mask4">
  <g filter="url(#alpha)">
<rect x="0" y="0" width="999" height="570" style="fill:rgb(0%,0%,0%);fill-opacity:0.2;stroke:none;"/>
  </g>
</mask>
<clipPath id="clip5">
  <rect width="999" height="570"/>
</clipPath>
<g id="surface18" clip-path="url(#clip5)">
<path style=" stroke:none;fill-rule:nonzero;fill:rgb(0%,0%,0%);fill-opacity:1;" d="M 161.734375 519.390625 C 149.09375 519.492188 132.359375 517.421875 128.992188 515.367188 C 126.425781 513.804688 125.40625 508.199219 125.0625 505.609375 C 124.824219 505.621094 124.6875 505.625 124.6875 505.625 C 124.6875 505.625 125.398438 514.660156 128.765625 516.710938 C 132.132812 518.761719 148.867188 520.835938 161.511719 520.734375 C 165.160156 520.703125 166.421875 519.40625 166.351562 517.480469 C 165.84375 518.644531 164.453125 519.371094 161.734375 519.390625 Z M 161.734375 519.390625 "/>
</g>
<mask id="mask5">
  <g filter="url(#alpha)">
<rect x="0" y="0" width="999" height="570" style="fill:rgb(0%,0%,0%);fill-opacity:0.2;stroke:none;"/>
  </g>
</mask>
<clipPath id="clip6">
  <rect width="999" height="570"/>
</clipPath>
<g id="surface21" clip-path="url(#clip6)">
<path style=" stroke:none;fill-rule:nonzero;fill:rgb(0%,0%,0%);fill-opacity:1;" d="M 770.28125 511.472656 C 757.640625 511.578125 740.90625 509.503906 737.539062 507.453125 C 734.972656 505.890625 733.949219 500.28125 733.609375 497.695312 C 733.371094 497.703125 733.234375 497.707031 733.234375 497.707031 C 733.234375 497.707031 733.945312 506.742188 737.3125 508.792969 C 740.679688 510.847656 757.414062 512.917969 770.054688 512.816406 C 773.707031 512.785156 774.964844 511.488281 774.898438 509.566406 C 774.390625 510.726562 772.996094 511.453125 770.28125 511.472656 Z M 770.28125 511.472656 "/>
</g>
<mask id="mask6">
  <g filter="url(#alpha)">
<rect x="0" y="0" width="999" height="570" style="fill:rgb(0%,0%,0%);fill-opacity:0.101961;stroke:none;"/>
  </g>
</mask>
<clipPath id="clip7">
  <rect width="999" height="570"/>
</clipPath>
<g id="surface24" clip-path="url(#clip7)">
<path style=" stroke:none;fill-rule:nonzero;fill:rgb(0%,0%,0%);fill-opacity:1;" d="M 438.605469 267.921875 C 438.605469 267.921875 428.488281 363.820312 431.378906 365.265625 C 434.269531 366.710938 441.980469 368.640625 443.425781 367.195312 C 444.871094 365.75 450.652344 306.476562 450.652344 306.476562 L 446.316406 275.632812 Z M 438.605469 267.921875 "/>
</g>
<mask id="mask7">
  <g filter="url(#alpha)">
<rect x="0" y="0" width="999" height="570" style="fill:rgb(0%,0%,0%);fill-opacity:0.101961;stroke:none;"/>
  </g>
</mask>
<clipPath id="clip8">
  <rect width="999" height="570"/>
</clipPath>
<g id="surface27" clip-path="url(#clip8)">
<path style=" stroke:none;fill-rule:nonzero;fill:rgb(0%,0%,0%);fill-opacity:1;" d="M 464.140625 239.492188 C 464.140625 239.492188 463.175781 260.695312 456.433594 262.140625 C 449.6875 263.585938 462.695312 288.164062 462.695312 288.164062 L 482.929688 286.234375 L 487.75 257.320312 C 487.75 257.320312 476.667969 255.394531 480.523438 240.453125 Z M 464.140625 239.492188 "/>
</g>
<mask id="mask8">
  <g filter="url(#alpha)">
<rect x="0" y="0" width="999" height="570" style="fill:rgb(0%,0%,0%);fill-opacity:0.101961;stroke:none;"/>
  </g>
</mask>
<clipPath id="clip9">
  <rect width="999" height="570"/>
</clipPath>
<g id="surface30" clip-path="url(#clip9)">
<path style=" stroke:none;fill-rule:nonzero;fill:rgb(0%,0%,0%);fill-opacity:1;" d="M 503.886719 269.128906 C 503.886719 269.128906 502.683594 263.585938 504.128906 266.957031 C 505.574219 270.332031 516.171875 311.292969 506.539062 335.871094 C 506.539062 335.871094 505.574219 366.230469 504.609375 366.230469 C 503.648438 366.230469 492.085938 365.75 492.566406 362.375 C 493.046875 359 494.011719 304.546875 494.011719 301.171875 C 494.011719 297.800781 495.699219 275.875 495.699219 275.875 Z M 503.886719 269.128906 "/>
</g>
</defs>
<g id="surface1">
<path style=" stroke:none;fill-rule:nonzero;fill:rgb(100%,39.607843%,51.764706%);fill-opacity:1;" d="M 293.71875 188.699219 C 293.71875 230.480469 259.859375 264.347656 218.089844 264.347656 C 176.324219 264.347656 142.464844 230.480469 142.464844 188.699219 C 142.464844 146.921875 176.324219 113.050781 218.089844 113.050781 C 259.859375 113.050781 293.71875 146.921875 293.71875 188.699219 Z M 293.71875 188.699219 "/>
<path style=" stroke:none;fill-rule:nonzero;fill:rgb(94.901961%,94.901961%,94.901961%);fill-opacity:1;" d="M 967.691406 538.152344 C 963.246094 542.152344 958.570312 545.894531 953.683594 549.347656 C 942.09375 557.503906 929.566406 564.238281 916.371094 569.414062 C 861.539062 568.09375 780.933594 561.363281 679.1875 557.773438 C 671.597656 555.179688 663.835938 552.371094 655.902344 549.347656 C 645.402344 545.347656 634.597656 540.949219 623.496094 536.152344 C 577.378906 516.222656 530.03125 503.265625 483.132812 495.523438 C 473.054688 493.863281 463.003906 492.4375 452.980469 491.25 C 241.203125 465.914062 45.90625 540.351562 23.285156 549.347656 L 21.105469 549.347656 L 35.019531 522.398438 L 271.734375 63.792969 L 327.09375 205.957031 L 344.761719 251.339844 L 393.453125 184.503906 L 418.59375 149.996094 L 533.09375 281.300781 L 565.457031 209.8125 L 789.507812 392.703125 L 802.003906 402.898438 L 814.652344 413.226562 L 818.679688 416.515625 L 938.460938 514.296875 Z M 967.691406 538.152344 "/>
<use xlink:href="#surface6" mask="url(#mask0)"/>
<use xlink:href="#surface9" mask="url(#mask1)"/>
<use xlink:href="#surface12" mask="url(#mask2)"/>
<use xlink:href="#surface15" mask="url(#mask3)"/>
<path style=" stroke:none;fill-rule:nonzero;fill:rgb(24.705882%,23.921569%,33.72549%);fill-opacity:1;" d="M 999 549.789062 C 999 566.828125 970.015625 570.707031 916.371094 569.414062 C 861.539062 568.09375 780.933594 561.363281 679.1875 557.773438 C 640.707031 556.421875 599.1875 555.507812 554.902344 555.507812 C 279.035156 555.507812 0 590.839844 0 549.789062 C 0 540.113281 12.417969 530.875 35.019531 522.398438 C 102.027344 497.257812 258.542969 478.847656 446.050781 475.882812 C 454.582031 475.742188 463.171875 475.636719 471.824219 475.574219 C 480.988281 475.496094 490.214844 475.457031 499.5 475.460938 C 574.046875 475.460938 644.785156 477.886719 708.324219 482.242188 C 708.523438 482.257812 708.71875 482.277344 708.921875 482.285156 C 714.019531 482.636719 719.070312 483 724.074219 483.375 C 729.535156 483.789062 734.9375 484.214844 740.28125 484.652344 C 741.378906 484.738281 742.480469 484.828125 743.570312 484.925781 C 744.359375 484.984375 745.152344 485.054688 745.933594 485.125 C 747.375 485.242188 748.820312 485.363281 750.242188 485.496094 C 750.292969 485.496094 750.34375 485.496094 750.394531 485.503906 C 753.015625 485.734375 755.617188 485.960938 758.203125 486.191406 C 758.476562 486.21875 758.746094 486.242188 759.019531 486.261719 C 834.164062 493.078125 896.269531 502.761719 938.460938 514.296875 C 977.066406 524.84375 999 536.929688 999 549.789062 Z M 999 549.789062 "/>
<path style=" stroke:none;fill-rule:nonzero;fill:rgb(24.705882%,23.921569%,33.72549%);fill-opacity:1;" d="M 62.335938 403.03125 C 62.335938 459.339844 97.65625 504.90625 141.300781 504.90625 "/>
<path style=" stroke:none;fill-rule:nonzero;fill:rgb(40%,80%,100%);fill-opacity:1;" d="M 141.300781 504.90625 C 141.300781 447.964844 180.710938 401.886719 229.417969 401.886719 "/>
<path style=" stroke:none;fill-rule:nonzero;fill:rgb(40%,80%,100%);fill-opacity:1;" d="M 90.949219 408.136719 C 90.949219 461.625 113.46875 504.90625 141.300781 504.90625 "/>
<path style=" stroke:none;fill-rule:nonzero;fill:rgb(24.705882%,23.921569%,33.72549%);fill-opacity:1;" d="M 141.300781 504.90625 C 141.300781 432.144531 186.855469 373.269531 243.148438 373.269531 "/>
<path style=" stroke:none;fill-rule:nonzero;fill:rgb(65.882353%,65.882353%,65.882353%);fill-opacity:1;" d="M 124.6875 505.625 C 124.6875 505.625 135.886719 505.28125 139.261719 502.875 C 142.636719 500.472656 156.488281 497.601562 157.324219 501.457031 C 158.160156 505.3125 174.152344 520.632812 161.511719 520.734375 C 148.867188 520.835938 132.132812 518.761719 128.765625 516.710938 C 125.398438 514.660156 124.6875 505.625 124.6875 505.625 Z M 124.6875 505.625 "/>
<use xlink:href="#surface18" mask="url(#mask4)"/>
<path style=" stroke:none;fill-rule:nonzero;fill:rgb(24.705882%,23.921569%,33.72549%);fill-opacity:1;" d="M 670.882812 395.113281 C 670.882812 451.425781 706.199219 496.988281 749.847656 496.988281 Z M 670.882812 395.113281 "/>
<path style=" stroke:none;fill-rule:nonzero;fill:rgb(40%,80%,100%);fill-opacity:1;" d="M 749.847656 496.988281 C 749.847656 440.046875 789.257812 393.96875 837.964844 393.96875 Z M 749.847656 496.988281 "/>
<path style=" stroke:none;fill-rule:nonzero;fill:rgb(40%,80%,100%);fill-opacity:1;" d="M 699.492188 400.21875 C 699.492188 453.707031 722.015625 496.988281 749.847656 496.988281 Z M 699.492188 400.21875 "/>
<path style=" stroke:none;fill-rule:nonzero;fill:rgb(24.705882%,23.921569%,33.72549%);fill-opacity:1;" d="M 749.847656 496.988281 C 749.847656 424.230469 795.398438 365.351562 851.695312 365.351562 Z M 749.847656 496.988281 "/>
<path style=" stroke:none;fill-rule:nonzero;fill:rgb(65.882353%,65.882353%,65.882353%);fill-opacity:1;" d="M 733.234375 497.707031 C 733.234375 497.707031 744.433594 497.363281 747.808594 494.960938 C 751.183594 492.554688 765.03125 489.683594 765.871094 493.539062 C 766.707031 497.394531 782.699219 512.714844 770.054688 512.816406 C 757.414062 512.917969 740.679688 510.847656 737.3125 508.792969 C 733.945312 506.742188 733.234375 497.707031 733.234375 497.707031 Z M 733.234375 497.707031 "/>
<use xlink:href="#surface21" mask="url(#mask5)"/>
<path style=" stroke:none;fill-rule:nonzero;fill:rgb(24.705882%,23.921569%,33.72549%);fill-opacity:1;" d="M 422.992188 387.457031 L 438.820312 387.457031 L 438.820312 415.683594 L 422.992188 415.683594 Z M 422.992188 387.457031 "/>
<path style=" stroke:none;fill-rule:nonzero;fill:rgb(94.901961%,94.901961%,94.901961%);fill-opacity:1;" d="M 434.003906 395.03125 C 434.003906 396.742188 432.617188 398.128906 430.90625 398.128906 C 429.195312 398.128906 427.808594 396.742188 427.808594 395.03125 C 427.808594 393.320312 429.195312 391.933594 430.90625 391.933594 C 432.617188 391.933594 434.003906 393.320312 434.003906 395.03125 Z M 434.003906 395.03125 "/>
<path style=" stroke:none;fill-rule:nonzero;fill:rgb(100%,72.54902%,72.54902%);fill-opacity:1;" d="M 432.824219 363.339844 C 432.824219 363.339844 428.007812 391.289062 436.679688 392.253906 C 445.351562 393.214844 437.644531 362.375 437.644531 362.375 Z M 432.824219 363.339844 "/>
<path style=" stroke:none;fill-rule:nonzero;fill:rgb(34.117647%,35.294118%,53.72549%);fill-opacity:1;" d="M 438.605469 267.921875 C 438.605469 267.921875 428.488281 363.820312 431.378906 365.265625 C 434.269531 366.710938 441.980469 368.640625 443.425781 367.195312 C 444.871094 365.75 450.652344 306.476562 450.652344 306.476562 L 446.316406 275.632812 Z M 438.605469 267.921875 "/>
<use xlink:href="#surface24" mask="url(#mask6)"/>
<path style=" stroke:none;fill-rule:nonzero;fill:rgb(18.431373%,18.039216%,25.490196%);fill-opacity:1;" d="M 457.15625 224.792969 L 487.507812 224.792969 L 487.507812 257.5625 L 457.15625 257.5625 Z M 457.15625 224.792969 "/>
<path style=" stroke:none;fill-rule:nonzero;fill:rgb(100%,72.54902%,72.54902%);fill-opacity:1;" d="M 464.140625 239.492188 C 464.140625 239.492188 463.175781 260.695312 456.433594 262.140625 C 449.6875 263.585938 462.695312 288.164062 462.695312 288.164062 L 482.929688 286.234375 L 487.75 257.320312 C 487.75 257.320312 476.667969 255.394531 480.523438 240.453125 Z M 464.140625 239.492188 "/>
<use xlink:href="#surface27" mask="url(#mask7)"/>
<path style=" stroke:none;fill-rule:nonzero;fill:rgb(100%,72.54902%,72.54902%);fill-opacity:1;" d="M 465.105469 481.886719 L 466.550781 490.078125 L 475.222656 488.152344 L 473.292969 479.957031 Z M 465.105469 481.886719 "/>
<path style=" stroke:none;fill-rule:nonzero;fill:rgb(100%,72.54902%,72.54902%);fill-opacity:1;" d="M 492.566406 469.355469 L 489.675781 478.03125 L 498.828125 482.851562 L 499.3125 475.621094 Z M 492.566406 469.355469 "/>
<path style=" stroke:none;fill-rule:nonzero;fill:rgb(18.431373%,18.039216%,25.490196%);fill-opacity:1;" d="M 454.988281 339.242188 C 454.988281 339.242188 443.425781 372.976562 445.832031 388.878906 C 448.242188 404.78125 457.878906 480.441406 457.878906 480.441406 C 457.878906 480.441406 468.957031 487.667969 475.703125 479.476562 L 470.886719 414.902344 C 470.886719 414.902344 471.847656 375.867188 475.703125 379.722656 C 479.558594 383.578125 494.492188 428.878906 494.492188 428.878906 L 491.601562 469.839844 C 491.601562 469.839844 493.046875 482.367188 501.71875 477.066406 L 513.765625 431.769531 C 513.765625 431.769531 509.910156 371.050781 507.984375 368.640625 C 506.054688 366.230469 493.53125 338.28125 493.53125 338.28125 Z M 454.988281 339.242188 "/>
<path style=" stroke:none;fill-rule:nonzero;fill:rgb(100%,72.54902%,72.54902%);fill-opacity:1;" d="M 487.988281 234.914062 C 487.988281 242.628906 481.734375 248.886719 474.015625 248.886719 C 466.300781 248.886719 460.046875 242.628906 460.046875 234.914062 C 460.046875 227.195312 466.300781 220.9375 474.015625 220.9375 C 481.734375 220.9375 487.988281 227.195312 487.988281 234.914062 Z M 487.988281 234.914062 "/>
<path style=" stroke:none;fill-rule:nonzero;fill:rgb(40%,80%,100%);fill-opacity:1;" d="M 459.804688 269.367188 C 459.804688 269.367188 465.105469 277.078125 471.847656 271.777344 C 478.59375 266.476562 482.449219 265.996094 482.449219 265.996094 L 490.640625 270.8125 L 488.710938 289.609375 L 491.601562 341.652344 C 491.601562 341.652344 456.433594 344.542969 454.503906 340.691406 C 452.578125 336.835938 456.914062 320.449219 456.914062 320.449219 L 450.652344 285.269531 L 450.652344 269.367188 Z M 459.804688 269.367188 "/>
<path style=" stroke:none;fill-rule:nonzero;fill:rgb(34.117647%,35.294118%,53.72549%);fill-opacity:1;" d="M 470.886719 283.34375 C 470.886719 283.34375 462.214844 256.839844 459.324219 256.355469 C 456.433594 255.875 448.242188 261.65625 448.242188 261.65625 C 448.242188 261.65625 436.199219 265.511719 436.199219 267.921875 C 436.199219 270.332031 438.125 270.332031 438.125 270.332031 L 444.871094 283.34375 C 444.871094 283.34375 447.761719 294.910156 446.796875 302.621094 C 446.214844 307.253906 446.054688 311.929688 446.316406 316.59375 C 446.316406 316.59375 435.714844 380.207031 441.015625 382.132812 C 446.316406 384.0625 446.316406 385.988281 446.316406 385.988281 C 446.316406 385.988281 454.023438 390.324219 455.46875 388.398438 C 456.914062 386.46875 470.886719 303.582031 470.886719 303.582031 C 470.886719 303.582031 478.113281 289.609375 470.886719 283.34375 Z M 470.886719 283.34375 "/>
<path style=" stroke:none;fill-rule:nonzero;fill:rgb(34.117647%,35.294118%,53.72549%);fill-opacity:1;" d="M 472.8125 283.34375 C 472.8125 283.34375 477.148438 273.222656 474.738281 266.476562 C 474.738281 266.476562 477.148438 265.996094 478.113281 264.550781 C 479.078125 263.105469 478.113281 255.875 480.523438 255.394531 C 482.929688 254.910156 500.757812 255.394531 501.71875 256.355469 C 502.683594 257.320312 505.574219 264.066406 505.574219 264.066406 L 504.128906 264.066406 L 493.53125 281.414062 C 493.53125 281.414062 498.828125 314.183594 497.867188 319.484375 C 496.902344 324.785156 511.835938 346.953125 513.765625 348.398438 C 515.691406 349.847656 524.363281 372.976562 520.507812 375.386719 C 516.65625 377.796875 482.929688 393.214844 481.484375 385.507812 C 480.039062 377.796875 469.921875 331.535156 469.921875 331.535156 C 469.921875 331.535156 469.441406 305.992188 470.886719 299.726562 C 472.332031 293.464844 472.8125 283.34375 472.8125 283.34375 Z M 472.8125 283.34375 "/>
<path style=" stroke:none;fill-rule:nonzero;fill:rgb(100%,72.54902%,72.54902%);fill-opacity:1;" d="M 495.457031 360.449219 C 495.457031 360.449219 485.339844 393.699219 495.457031 392.253906 C 505.574219 390.808594 503.164062 359.484375 503.164062 359.484375 Z M 495.457031 360.449219 "/>
<path style=" stroke:none;fill-rule:nonzero;fill:rgb(18.431373%,18.039216%,25.490196%);fill-opacity:1;" d="M 474.28125 488.167969 C 474.28125 488.167969 482.265625 490.449219 481.695312 495.585938 C 481.332031 498.625 479.375 501.234375 476.5625 502.433594 C 474.855469 503.546875 473.960938 505.558594 474.28125 507.570312 C 474.851562 510.996094 469.714844 516.132812 461.15625 513.847656 C 452.597656 511.566406 454.3125 509.285156 454.3125 509.285156 C 454.777344 506.75 456.210938 504.5 458.304688 503.003906 C 461.726562 500.722656 465.722656 492.734375 465.722656 492.164062 C 465.722656 491.59375 466.863281 487.597656 466.863281 487.597656 C 466.863281 487.597656 471.425781 484.742188 474.28125 488.167969 Z M 474.28125 488.167969 "/>
<path style=" stroke:none;fill-rule:nonzero;fill:rgb(18.431373%,18.039216%,25.490196%);fill-opacity:1;" d="M 491.121094 477.066406 C 491.121094 477.066406 482.449219 480.921875 484.375 485.742188 C 486.304688 490.558594 492.566406 497.308594 493.53125 504.535156 C 494.492188 511.765625 502.683594 518.027344 508.464844 514.171875 C 514.246094 510.320312 507.5 502.609375 507.5 502.609375 C 507.5 502.609375 500.273438 489.113281 499.792969 486.222656 C 499.3125 483.332031 500.757812 480.441406 497.867188 479.476562 C 494.976562 478.511719 491.121094 477.066406 491.121094 477.066406 Z M 491.121094 477.066406 "/>
<use xlink:href="#surface30" mask="url(#mask8)"/>
<path style=" stroke:none;fill-rule:nonzero;fill:rgb(34.117647%,35.294118%,53.72549%);fill-opacity:1;" d="M 501.71875 260.695312 C 503.265625 262.609375 504.558594 264.714844 505.574219 266.957031 C 507.019531 270.332031 517.617188 311.292969 507.984375 335.871094 C 507.984375 335.871094 507.019531 366.230469 506.054688 366.230469 C 505.09375 366.230469 493.53125 365.75 494.011719 362.375 C 494.492188 359 495.457031 304.546875 495.457031 301.175781 C 495.457031 297.800781 492.566406 275.152344 492.566406 275.152344 Z M 501.71875 260.695312 "/>
<path style=" stroke:none;fill-rule:nonzero;fill:rgb(18.431373%,18.039216%,25.490196%);fill-opacity:1;" d="M 466.140625 210.308594 C 461.085938 211.890625 457.3125 216.019531 453.792969 219.980469 C 452.425781 221.378906 451.265625 222.96875 450.347656 224.699219 C 449.453125 226.902344 448.984375 229.257812 448.957031 231.636719 C 448.722656 235.324219 448.648438 239.015625 448.730469 242.714844 C 448.8125 246.257812 449.03125 249.886719 447.941406 253.257812 C 446.890625 256.519531 444.699219 259.277344 443.191406 262.351562 C 440.792969 267.261719 440.238281 273.21875 442.453125 278.214844 C 443.675781 280.964844 445.648438 283.304688 447.125 285.925781 C 449.730469 290.59375 450.699219 296.003906 449.867188 301.285156 L 456.804688 292.296875 C 461.246094 286.539062 465.832031 280.472656 467.082031 273.308594 C 468.894531 262.914062 463.351562 252.734375 462.257812 242.242188 C 461.953125 239.316406 462.054688 236.15625 463.710938 233.722656 C 466.15625 230.136719 471.472656 228.867188 472.941406 224.78125 C 473.152344 226.492188 483.402344 231.941406 484.636719 230.882812 C 486.179688 235.046875 485.445312 239.71875 482.699219 243.210938 C 481.707031 244.441406 480.488281 245.476562 479.519531 246.730469 C 477.015625 249.96875 476.445312 254.339844 476.800781 258.421875 C 477.152344 262.503906 478.328125 266.464844 478.949219 270.515625 C 479.472656 274.546875 479.722656 278.609375 479.699219 282.675781 C 479.746094 285.488281 479.667969 288.628906 477.695312 290.636719 C 480.929688 289.503906 483.886719 287.691406 486.367188 285.320312 C 487.710938 283.855469 489.15625 282.484375 490.691406 281.21875 C 493.792969 278.980469 498 278.316406 500.53125 275.445312 C 502.792969 272.882812 503.152344 269.125 502.621094 265.746094 C 502.089844 262.371094 500.796875 259.160156 500.144531 255.804688 C 499.320312 251.539062 499.550781 247.132812 500.816406 242.976562 C 501.734375 239.957031 503.207031 237.046875 503.386719 233.894531 C 503.753906 227.464844 498.796875 222.085938 494.03125 217.753906 C 486.894531 211.265625 475.835938 207.277344 466.140625 210.308594 Z M 466.140625 210.308594 "/>
<path style=" stroke:none;fill-rule:nonzero;fill:rgb(94.901961%,94.901961%,94.901961%);fill-opacity:1;" d="M 875.351562 91.804688 C 871.082031 93.382812 863.582031 94.671875 854.902344 95.714844 C 831.300781 98.546875 798.953125 99.550781 798.953125 99.550781 C 798.953125 99.550781 632.726562 113.34375 508.132812 62.050781 C 508.132812 62.050781 490.007812 52.546875 506.84375 39.757812 C 509.429688 37.847656 512.179688 36.164062 515.0625 34.738281 C 515.0625 34.738281 515.132812 34.667969 515.269531 34.535156 C 517.183594 32.765625 519.25 31.171875 521.449219 29.773438 C 527.902344 25.601562 538.800781 20.648438 552.066406 22.894531 L 879.28125 75.835938 C 879.28125 75.835938 891.234375 85.933594 875.351562 91.804688 Z M 875.351562 91.804688 "/>
<path style=" stroke:none;fill-rule:nonzero;fill:rgb(94.901961%,94.901961%,94.901961%);fill-opacity:1;" d="M 810.148438 67.8125 L 878.652344 19.195312 L 908.847656 24.417969 L 879.28125 75.832031 C 879.28125 75.832031 810.933594 76.378906 810.148438 67.8125 Z M 810.148438 67.8125 "/>
<path style=" stroke:none;fill-rule:nonzero;fill:rgb(94.901961%,94.901961%,94.901961%);fill-opacity:1;" d="M 637.679688 38.277344 L 774.132812 0 L 796.128906 4.597656 L 734.488281 32.332031 L 715.222656 53.890625 Z M 637.679688 38.277344 "/>
<path style=" stroke:none;fill-rule:nonzero;fill:rgb(94.901961%,94.901961%,94.901961%);fill-opacity:1;" d="M 854.902344 95.714844 C 831.300781 98.546875 798.953125 99.550781 798.953125 99.550781 C 798.953125 99.550781 632.726562 113.34375 508.132812 62.050781 C 508.132812 62.050781 490.007812 52.546875 506.84375 39.757812 L 506.898438 39.992188 C 506.898438 39.992188 533.78125 58.167969 662.234375 73.34375 Z M 854.902344 95.714844 "/>
<path style=" stroke:none;fill-rule:nonzero;fill:rgb(94.901961%,94.901961%,94.901961%);fill-opacity:1;" d="M 832.96875 94.664062 L 893.976562 119.578125 L 909.300781 117.875 L 872.808594 90.445312 C 872.808594 90.445312 828.671875 81.027344 832.96875 94.664062 Z M 832.96875 94.664062 "/>
<path style=" stroke:none;fill-rule:nonzero;fill:rgb(94.901961%,94.901961%,94.901961%);fill-opacity:1;" d="M 529 42.65625 C 526.085938 42.707031 519.417969 37.820312 515.269531 34.535156 C 517.183594 32.765625 519.25 31.171875 521.449219 29.773438 C 524.789062 32.339844 530.738281 36.496094 534.046875 36.347656 C 538.820312 36.132812 533.378906 42.578125 529 42.65625 Z M 529 42.65625 "/>
<path style=" stroke:none;fill-rule:nonzero;fill:rgb(94.901961%,94.901961%,94.901961%);fill-opacity:1;" d="M 806.148438 180.792969 L 766.980469 182.839844 L 656.863281 108.5625 L 636.417969 94.773438 L 626.484375 88.074219 C 645.117188 72.320312 721.121094 94.039062 721.121094 94.039062 C 722.578125 95.269531 723.039062 97.308594 722.972656 99.5625 C 722.847656 103.785156 720.863281 108.757812 720.101562 110.527344 C 719.917969 110.953125 719.804688 111.195312 719.804688 111.195312 Z M 806.148438 180.792969 "/>
<path style=" stroke:none;fill-rule:nonzero;fill:rgb(24.705882%,23.921569%,33.72549%);fill-opacity:1;" d="M 875.351562 91.804688 C 871.082031 93.382812 863.582031 94.671875 854.902344 95.714844 C 831.300781 98.546875 798.953125 99.550781 798.953125 99.550781 C 798.953125 99.550781 632.726562 113.34375 508.132812 62.050781 C 508.132812 62.050781 490.007812 52.546875 506.84375 39.757812 C 509.429688 37.847656 512.179688 36.164062 515.0625 34.738281 C 515.0625 34.738281 515.132812 34.667969 515.269531 34.535156 C 517.183594 32.765625 519.25 31.171875 521.449219 29.773438 C 527.902344 25.601562 538.800781 20.648438 552.066406 22.894531 L 879.28125 75.835938 C 879.28125 75.835938 891.234375 85.933594 875.351562 91.804688 Z M 875.351562 91.804688 "/>
<path style=" stroke:none;fill-rule:nonzero;fill:rgb(24.705882%,23.921569%,33.72549%);fill-opacity:1;" d="M 810.148438 67.8125 L 878.652344 19.195312 L 908.847656 24.417969 L 879.28125 75.832031 C 879.28125 75.832031 810.933594 76.378906 810.148438 67.8125 Z M 810.148438 67.8125 "/>
<path style=" stroke:none;fill-rule:nonzero;fill:rgb(24.705882%,23.921569%,33.72549%);fill-opacity:1;" d="M 637.679688 38.277344 L 774.132812 0 L 796.128906 4.597656 L 734.488281 32.332031 L 715.222656 53.890625 Z M 637.679688 38.277344 "/>
<path style=" stroke:none;fill-rule:nonzero;fill:rgb(40%,80%,100%);fill-opacity:1;" d="M 854.902344 95.714844 C 831.300781 98.546875 798.953125 99.550781 798.953125 99.550781 C 798.953125 99.550781 632.726562 113.34375 508.132812 62.050781 C 508.132812 62.050781 490.007812 52.546875 506.84375 39.757812 L 506.898438 39.992188 C 506.898438 39.992188 533.78125 58.167969 662.234375 73.34375 Z M 854.902344 95.714844 "/>
<path style=" stroke:none;fill-rule:nonzero;fill:rgb(24.705882%,23.921569%,33.72549%);fill-opacity:1;" d="M 832.96875 94.664062 L 893.976562 119.578125 L 909.300781 117.875 L 872.808594 90.445312 C 872.808594 90.445312 828.671875 81.027344 832.96875 94.664062 Z M 832.96875 94.664062 "/>
<path style=" stroke:none;fill-rule:nonzero;fill:rgb(40%,80%,100%);fill-opacity:1;" d="M 529 42.65625 C 526.085938 42.707031 519.417969 37.820312 515.269531 34.535156 C 517.183594 32.765625 519.25 31.171875 521.449219 29.773438 C 524.789062 32.339844 530.738281 36.496094 534.046875 36.347656 C 538.820312 36.132812 533.378906 42.578125 529 42.65625 Z M 529 42.65625 "/>
<path style=" stroke:none;fill-rule:nonzero;fill:rgb(24.705882%,23.921569%,33.72549%);fill-opacity:1;" d="M 806.148438 180.792969 L 766.980469 182.839844 L 656.863281 108.5625 L 636.417969 94.773438 L 626.484375 88.074219 C 645.117188 72.320312 721.121094 94.039062 721.121094 94.039062 C 722.578125 95.269531 723.039062 97.308594 722.972656 99.5625 C 722.847656 103.785156 720.863281 108.757812 720.101562 110.527344 C 719.917969 110.953125 719.804688 111.195312 719.804688 111.195312 Z M 806.148438 180.792969 "/>
</g>
</svg>
